<svg xmlns="http://www.w3.org/2000/svg" width="63.254" height="50" viewBox="0 0 63.254 50">
  <g id="Group_34490" data-name="Group 34490" transform="translate(-228 -6037)">
    <g id="Ellipse_79" data-name="Ellipse 79" transform="translate(228 6037)" fill="none" stroke="#707070" stroke-width="2">
      <ellipse cx="25.5" cy="25" rx="25.5" ry="25" stroke="none"/>
      <ellipse cx="25.5" cy="25" rx="24.5" ry="24" fill="none"/>
    </g>
    <g id="Group_17899" data-name="Group 17899" transform="translate(244.254 6051)">
      <g id="Group_17875" data-name="Group 17875" transform="translate(0 0)">
        <g id="Group_17897" data-name="Group 17897">
          <path id="Path_19" data-name="Path 19" d="M379.351,22a1.628,1.628,0,0,0,1.316-.666,1.6,1.6,0,0,0-.362-2.252l-10.334-7.448a.834.834,0,0,1-.415-.594.837.837,0,0,1,.414-.6l10.344-7.529a1.608,1.608,0,0,0,.351-2.254A1.626,1.626,0,0,0,378.4.311L368.055,7.84a3.976,3.976,0,0,0-1.74,3.207,3.977,3.977,0,0,0,1.755,3.2L378.4,21.694A1.614,1.614,0,0,0,379.351,22Z" transform="translate(-366.316 0)" fill="#bababa"/>
        </g>
        <rect id="Rectangle_16221" data-name="Rectangle 16221" width="44.254" height="3.24" rx="1.62" transform="translate(2.746 9.507)" fill="#bababa"/>
      </g>
    </g>
  </g>
</svg>
