<svg xmlns="http://www.w3.org/2000/svg" width="17.65" height="20.994" viewBox="0 0 17.65 20.994">
  <g id="Group_18719" data-name="Group 18719" transform="translate(17.65 -81.199) rotate(90)">
    <rect id="Rectangle_41" data-name="Rectangle 41" width="17.527" height="2.588" rx="1.294" transform="translate(81.199 7.531)" fill="#ef4637"/>
    <rect id="Rectangle_16418" data-name="Rectangle 16418" width="17.527" height="2.588" rx="1.294" transform="translate(99.605 17.65) rotate(-90)" fill="#ef4637"/>
    <g id="Group_47" data-name="Group 47" transform="translate(89.199)">
      <g id="Group_18192" data-name="Group 18192">
        <path id="Path_19" data-name="Path 19" d="M367.613,17.649a1.293,1.293,0,0,1-.761-2.341L375.1,9.334a.669.669,0,0,0,.331-.477.672.672,0,0,0-.331-.479l-8.255-6.04A1.294,1.294,0,0,1,368.373.249l8.255,6.04a3.2,3.2,0,0,1,1.388,2.573,3.2,3.2,0,0,1-1.4,2.566L368.37,17.4A1.284,1.284,0,0,1,367.613,17.649Z" transform="translate(-366.316 0)" fill="#ef4637"/>
      </g>
    </g>
  </g>
</svg>
