<svg xmlns="http://www.w3.org/2000/svg" xmlns:xlink="http://www.w3.org/1999/xlink" width="22" height="22" viewBox="0 0 22 22" fill="#000">
  <defs>
    <clipPath id="clip-path">
      <rect id="Rectangle_10310" data-name="Rectangle 10310" width="22" height="22"/>
    </clipPath>
  </defs>
  <g id="Group_36510" data-name="Group 36510" transform="translate(0.469)">
    <g id="Group_23139" data-name="Group 23139" transform="translate(-0.469)" clip-path="url(#clip-path)">
      <path id="Path_36608" data-name="Path 36608" d="M10.848,0A10.848,10.848,0,1,0,21.7,10.848,10.848,10.848,0,0,0,10.848,0m0,20.147a9.3,9.3,0,1,1,9.3-9.3,9.3,9.3,0,0,1-9.3,9.3" transform="translate(0.303)"/>
      <path id="Path_36609" data-name="Path 36609" d="M16.519,9.227a.775.775,0,0,0-1.1,0l-2.552,2.552L10.32,9.227a.775.775,0,0,0-1.1,1.1l2.552,2.552L9.224,15.426A.775.775,0,1,0,10.3,16.541l.019-.019,2.552-2.552,2.552,2.552a.775.775,0,0,0,1.1-1.1l-2.552-2.552,2.552-2.552a.775.775,0,0,0,0-1.1" transform="translate(-1.72 -2.026)"/>
    </g>
  </g>
</svg>
