<svg xmlns="http://www.w3.org/2000/svg" xmlns:xlink="http://www.w3.org/1999/xlink" width="957.632" height="920.841" viewBox="0 0 957.632 920.841">
  <defs>
    <clipPath id="clip-path">
      <rect id="Rectangle_16366" data-name="Rectangle 16366" width="957.632" height="920.841" fill="#00b4e1"/>
    </clipPath>
  </defs>
  <g id="Group_35371" data-name="Group 35371" opacity="0.781">
    <path id="Path_36728" data-name="Path 36728" d="M811.552,0V88.12l-80.073,48.042L651.408,88.12V0h-2.165V89.345l82.236,49.34,82.239-49.34V0Z" fill="#00b4e1"/>
    <path id="Path_36729" data-name="Path 36729" d="M730.4,0V39.423l-80.07,48.044L570.251,39.423V0h-2.163V40.652l82.238,49.339,82.236-49.339V0Z" fill="#00b4e1"/>
    <path id="Path_36730" data-name="Path 36730" d="M892.706,136.81v98.612l64.925,38.955v-2.525L894.871,234.2V138.037l62.76-37.656V97.856Z" fill="#00b4e1"/>
    <path id="Path_36731" data-name="Path 36731" d="M811.552,185.5v98.612l82.237,49.344,63.843-38.3v-2.526l-63.843,38.3-80.071-48.042V186.733l80.071-48.049,63.843,38.31v-2.526l-63.843-38.307Z" fill="#00b4e1"/>
    <path id="Path_36732" data-name="Path 36732" d="M326.788,575.05v98.611L244.548,723l-82.234-49.342V575.05l82.234-49.345ZM164.476,672.435l80.072,48.043,80.074-48.043V576.276l-80.074-48.047-80.072,48.047Z" fill="#00b4e1"/>
    <path id="Path_36733" data-name="Path 36733" d="M245.63,623.74v98.615l-82.237,49.337L81.154,722.355V623.74L163.393,574.4ZM83.32,721.128l80.073,48.041,80.074-48.044V624.966l-80.074-48.043L83.32,624.966Z" fill="#00b4e1"/>
    <path id="Path_36734" data-name="Path 36734" d="M245.63,526.352v98.614l-82.237,49.342L81.154,624.966V526.352l82.239-49.341ZM83.32,623.74l80.073,48.046,80.074-48.046V527.579l-80.074-48.043L83.32,527.579Z" fill="#00b4e1"/>
    <path id="Path_36735" data-name="Path 36735" d="M732.563,526.356v98.612l-82.238,49.34-82.237-49.34V526.356l82.237-49.344ZM570.251,623.74l80.074,48.046L730.4,623.74V527.581l-80.071-48.045-80.074,48.045Z" fill="#00b4e1"/>
    <path id="Path_36736" data-name="Path 36736" d="M732.563,623.74v98.615l-82.238,49.337-82.237-49.337V623.74L650.325,574.4ZM570.251,721.126l80.074,48.046L730.4,721.126V624.968l-80.071-48.045-80.074,48.045Z" fill="#00b4e1"/>
    <path id="Path_36737" data-name="Path 36737" d="M651.408,672.434v98.614l-82.239,49.341-82.237-49.341V672.434l82.237-49.342ZM489.1,769.821l80.072,48.043,80.074-48.043v-96.16l-80.074-48.045L489.1,673.66Z" fill="#00b4e1"/>
    <path id="Path_36738" data-name="Path 36738" d="M813.717,672.434v98.614l-82.239,49.341-82.235-49.341V672.434l82.235-49.342Zm-162.31,97.387,80.071,48.043,80.073-48.043v-96.16l-80.073-48.045-80.071,48.045Z" fill="#00b4e1"/>
    <path id="Path_36739" data-name="Path 36739" d="M326.788,88.119v98.614l-82.24,49.339-82.234-49.341V88.119l82.234-49.342ZM164.476,185.5l80.072,48.044L324.622,185.5V89.345L244.548,41.3,164.476,89.345Z" fill="#00b4e1"/>
    <path id="Path_36740" data-name="Path 36740" d="M407.943,136.809v98.613L325.7,284.764l-82.234-49.342V136.808L325.7,87.466ZM245.63,234.2,325.7,282.241,405.779,234.2V138.036L325.7,89.99,245.63,138.034Z" fill="#00b4e1"/>
    <path id="Path_36741" data-name="Path 36741" d="M651.408,185.5v98.613L569.169,333.46l-82.237-49.343V185.5l82.237-49.342ZM489.1,282.892l80.07,48.042,80.075-48.042V186.733l-80.075-48.048L489.1,186.733Z" fill="#00b4e1"/>
    <path id="Path_36742" data-name="Path 36742" d="M732.563,331.584V430.2l-82.238,49.34L568.088,430.2V331.584l82.237-49.343ZM570.251,428.97l80.074,48.044L730.4,428.97V332.81l-80.071-48.045L570.251,332.81Z" fill="#00b4e1"/>
    <path id="Path_36743" data-name="Path 36743" d="M813.717,380.276V478.89l-82.239,49.338L649.243,478.89V380.276l82.235-49.342Zm-162.31,97.387,80.071,48.045,80.073-48.045V381.5L731.478,333.46,651.407,381.5Z" fill="#00b4e1"/>
    <path id="Path_36744" data-name="Path 36744" d="M894.872,331.584V430.2l-82.239,49.34L730.4,430.2V331.584l82.237-49.343ZM732.563,428.97l80.07,48.044,80.073-48.044V332.81l-80.073-48.045-80.07,48.045Z" fill="#00b4e1"/>
    <path id="Path_36745" data-name="Path 36745" d="M894.872,136.809v98.613l-82.239,49.342L730.4,235.422V136.809l82.237-49.343ZM732.563,234.2l80.07,48.044L892.706,234.2V138.036L812.633,89.99l-80.07,48.046Z" fill="#00b4e1"/>
    <path id="Path_36746" data-name="Path 36746" d="M894.872,428.97v98.612l-82.239,49.341L730.4,527.582V428.97l82.237-49.344ZM732.563,526.357l80.07,48.041,80.073-48.041V430.2l-80.073-48.047L732.563,430.2Z" fill="#00b4e1"/>
    <path id="Path_36747" data-name="Path 36747" d="M813.717,477.663v98.612l-82.239,49.341-82.235-49.341V477.663l82.235-49.343ZM651.407,575.05l80.071,48.042,80.073-48.042V478.89l-80.073-48.047L651.407,478.89Z" fill="#00b4e1"/>
    <path id="Path_36748" data-name="Path 36748" d="M489.1,282.891v98.614L406.86,430.842l-82.238-49.337V282.891l82.238-49.344ZM326.788,380.276l80.072,48.045,80.072-48.045V284.117L406.86,236.073l-80.072,48.044Z" fill="#00b4e1"/>
    <path id="Path_36749" data-name="Path 36749" d="M651.408,282.891v98.614l-82.239,49.337-82.237-49.337V282.891l82.237-49.344ZM489.1,380.276l80.072,48.045,80.074-48.045V284.117l-80.074-48.044L489.1,284.117Z" fill="#00b4e1"/>
    <path id="Path_36750" data-name="Path 36750" d="M407.943,234.2V332.81L325.7,382.149,243.468,332.81V234.2L325.7,184.854ZM245.63,331.584,325.7,379.626l80.077-48.042V235.422L325.7,187.378,245.63,235.422Z" fill="#00b4e1"/>
    <path id="Path_36751" data-name="Path 36751" d="M326.788,282.891v98.614l-82.24,49.337-82.234-49.337V282.891l82.234-49.344ZM164.476,380.276l80.072,48.043,80.074-48.043V284.117l-80.074-48.044-80.072,48.044Z" fill="#00b4e1"/>
    <path id="Path_36752" data-name="Path 36752" d="M326.788,185.5v98.613l-82.24,49.341-82.234-49.341V185.5l82.234-49.342ZM164.476,282.892l80.072,48.042,80.074-48.042V186.733l-80.074-48.048-80.072,48.047Z" fill="#00b4e1"/>
    <path id="Path_36753" data-name="Path 36753" d="M245.63,234.2V332.81l-82.237,49.339L81.154,332.81V234.2l82.239-49.342ZM83.32,331.584l80.073,48.042,80.074-48.042V235.422l-80.074-48.044L83.32,235.422Z" fill="#00b4e1"/>
    <path id="Path_36754" data-name="Path 36754" d="M2.165,477.662V381.5l80.072-48.048,80.076,48.05v96.157L82.237,525.7ZM0,380.277v98.611l82.237,49.341,82.239-49.341V380.277L82.237,330.935Z" fill="#00b4e1"/>
    <path id="Path_36755" data-name="Path 36755" d="M407.943,428.97v98.612L325.7,576.923l-82.234-49.341V428.97L325.7,379.626ZM245.63,526.357,325.7,574.4l80.077-48.041V430.2L325.7,382.149,245.63,430.2Z" fill="#00b4e1"/>
    <path id="Path_36756" data-name="Path 36756" d="M489.1,380.276V478.89L406.86,528.228,324.622,478.89V380.276l82.238-49.342ZM326.788,477.663l80.072,48.045,80.072-48.045V381.5L406.86,333.46,326.788,381.5Z" fill="#00b4e1"/>
    <g id="Group_35370" data-name="Group 35370">
      <g id="Group_35369" data-name="Group 35369" clip-path="url(#clip-path)">
        <path id="Path_36757" data-name="Path 36757" d="M249.417,624.354a4.869,4.869,0,1,1-4.869-4.872,4.866,4.866,0,0,1,4.869,4.872" fill="#00b4e1"/>
        <path id="Path_36758" data-name="Path 36758" d="M88.729,526.969a6.492,6.492,0,1,1-6.493-6.494,6.493,6.493,0,0,1,6.493,6.494" fill="#00b4e1"/>
        <path id="Path_36759" data-name="Path 36759" d="M248.878,332.2a4.328,4.328,0,1,1-4.33-4.328,4.328,4.328,0,0,1,4.33,4.328" fill="#00b4e1"/>
        <path id="Path_36760" data-name="Path 36760" d="M570.251,428.97v98.612l-82.237,49.341-82.235-49.341V428.97l82.235-49.344ZM407.942,526.357,488.014,574.4l80.073-48.041V430.2l-80.073-48.047L407.942,430.2Z" fill="#00b4e1"/>
        <path id="Path_36761" data-name="Path 36761" d="M411.186,526.969a4.328,4.328,0,1,1-4.325-4.329,4.325,4.325,0,0,1,4.325,4.329" fill="#00b4e1"/>
        <path id="Path_36762" data-name="Path 36762" d="M657.9,478.274a7.574,7.574,0,1,1-7.574-7.575,7.576,7.576,0,0,1,7.574,7.575" fill="#00b4e1"/>
        <path id="Path_36763" data-name="Path 36763" d="M897.577,526.969a3.787,3.787,0,1,1-3.789-3.787,3.788,3.788,0,0,1,3.789,3.787" fill="#00b4e1"/>
        <path id="Path_36764" data-name="Path 36764" d="M817.505,673.047a4.869,4.869,0,1,1-4.871-4.868,4.868,4.868,0,0,1,4.871,4.868" fill="#00b4e1"/>
        <path id="Path_36765" data-name="Path 36765" d="M817.505,380.886a4.869,4.869,0,1,1-4.871-4.866,4.871,4.871,0,0,1,4.871,4.866" fill="#00b4e1"/>
        <path id="Path_36766" data-name="Path 36766" d="M656.817,770.433a6.493,6.493,0,1,1-6.492-6.493,6.492,6.492,0,0,1,6.492,6.493" fill="#00b4e1"/>
        <path id="Path_36767" data-name="Path 36767" d="M815.341,867.818a2.7,2.7,0,1,1-2.707-2.7,2.707,2.707,0,0,1,2.707,2.7" fill="#00b4e1"/>
        <path id="Path_36768" data-name="Path 36768" d="M735.806,916.514a4.327,4.327,0,1,1-4.327-4.33,4.326,4.326,0,0,1,4.327,4.33" fill="#00b4e1"/>
        <path id="Path_36769" data-name="Path 36769" d="M655.194,283.5a4.869,4.869,0,1,1-4.869-4.869,4.871,4.871,0,0,1,4.869,4.869" fill="#00b4e1"/>
        <path id="Path_36770" data-name="Path 36770" d="M409.022,40.037a2.163,2.163,0,1,1-2.162-2.163,2.162,2.162,0,0,1,2.162,2.163" fill="#00b4e1"/>
        <path id="Path_36771" data-name="Path 36771" d="M493.964,88.73a5.951,5.951,0,1,1-5.949-5.954,5.951,5.951,0,0,1,5.949,5.954" fill="#00b4e1"/>
        <path id="Path_36772" data-name="Path 36772" d="M822.916,283.5a10.281,10.281,0,1,1-10.282-10.278A10.283,10.283,0,0,1,822.916,283.5" fill="#00b4e1"/>
        <path id="Path_36773" data-name="Path 36773" d="M170.427,186.115a7.034,7.034,0,1,1-7.033-7.033,7.032,7.032,0,0,1,7.033,7.033" fill="#00b4e1"/>
        <path id="Path_36774" data-name="Path 36774" d="M86.024,40.037a3.789,3.789,0,1,1-3.788-3.789,3.787,3.787,0,0,1,3.788,3.789" fill="#00b4e1"/>
        <path id="Path_36775" data-name="Path 36775" d="M741.216,137.423a9.737,9.737,0,1,1-9.737-9.739,9.735,9.735,0,0,1,9.737,9.739" fill="#00b4e1"/>
        <path id="Path_36776" data-name="Path 36776" d="M330.032,186.117a4.329,4.329,0,1,1-4.33-4.328,4.33,4.33,0,0,1,4.33,4.328" fill="#00b4e1"/>
        <path id="Path_36777" data-name="Path 36777" d="M496.669,380.886a8.656,8.656,0,1,1-8.654-8.654,8.655,8.655,0,0,1,8.654,8.654" fill="#00b4e1"/>
        <path id="Path_36778" data-name="Path 36778" d="M411.186,624.354a4.328,4.328,0,1,1-4.325-4.328,4.33,4.33,0,0,1,4.325,4.328" fill="#00b4e1"/>
        <path id="Path_36779" data-name="Path 36779" d="M327.325,770.432a1.623,1.623,0,1,1-1.623-1.622,1.622,1.622,0,0,1,1.623,1.622" fill="#00b4e1"/>
        <path id="Path_36780" data-name="Path 36780" d="M957.632,684.7l-62.76,37.658v96.159l62.76,37.657v2.524l-64.926-38.955V721.126l64.926-38.952Z" fill="#00b4e1"/>
        <path id="Path_36781" data-name="Path 36781" d="M957.632,489.925l-62.76,37.656V623.74l62.76,37.658v2.525l-64.926-38.955V526.357L957.632,487.4Z" fill="#00b4e1"/>
        <path id="Path_36782" data-name="Path 36782" d="M811.552,673.661V575.05l82.236-49.344,63.844,38.3v2.525l-63.844-38.308-80.07,48.047v96.159l80.07,48.043,63.844-38.3V684.7L893.788,723Z" fill="#00b4e1"/>
        <path id="Path_36783" data-name="Path 36783" d="M568.088,138.036V39.422L633.791,0H638L570.251,40.651v96.158l80.074,48.044L730.4,136.809V40.651L662.651,0h4.205l65.707,39.422v98.614l-82.238,49.342Z" fill="#00b4e1"/>
      </g>
    </g>
  </g>
</svg>
