<svg xmlns="http://www.w3.org/2000/svg" xmlns:xlink="http://www.w3.org/1999/xlink" width="1258.5" height="1210.149" viewBox="0 0 1258.5 1210.149">
  <defs>
    <clipPath id="clip-path">
      <rect id="Rectangle_16367" data-name="Rectangle 16367" width="1258.5" height="1210.149" fill="#84e3ff"/>
    </clipPath>
  </defs>
  <g id="Group_35374" data-name="Group 35374" opacity="0.452">
    <path id="Path_36784" data-name="Path 36784" d="M1025.513,1039.9v117.416h-2.842v-115.8L917.442,978.377,812.21,1041.514v115.8h-2.844V1039.9l108.076-64.841Z" transform="translate(-620.235 52.831)" fill="#84e3ff"/>
    <path id="Path_36785" data-name="Path 36785" d="M924.344,1100.6v53.424H921.5v-51.808l-105.232-63.137-105.231,63.137v51.808h-2.845V1100.6l108.076-64.838Z" transform="translate(-412.409 56.121)" fill="#84e3ff"/>
    <path id="Path_36786" data-name="Path 36786" d="M1198.2,857.1V986.69l-85.325,51.2v-3.314l82.477-49.491V858.707l-82.477-49.487V805.9Z" transform="translate(-1112.871 43.665)" fill="#84e3ff"/>
    <path id="Path_36787" data-name="Path 36787" d="M1203.678,797.092v129.6L1095.6,991.534l-83.9-50.339v-3.32l83.9,50.343,105.229-63.14V798.706L1095.6,735.568l-83.9,50.34V782.59l83.9-50.338Z" transform="translate(-1011.704 39.674)" fill="#84e3ff"/>
    <path id="Path_36788" data-name="Path 36788" d="M310.421,505.917l108.072-64.844V311.479l-108.072-64.84-108.079,64.84V441.073ZM415.65,439.461,310.421,502.6,205.19,439.461V313.09l105.231-63.136L415.65,313.09Z" transform="translate(626.7 13.36)" fill="#84e3ff"/>
    <path id="Path_36790" data-name="Path 36790" d="M209.246,566.624l108.073-64.848V372.183L209.246,307.337,101.17,372.183V501.775Zm105.228-66.46L209.246,563.305,104.014,500.164V373.793l105.232-63.137,105.228,63.137Z" transform="translate(834.528 16.649)" fill="#84e3ff"/>
    <path id="Path_36791" data-name="Path 36791" d="M816.268,566.624l108.075-64.849V372.181L816.268,307.337,708.192,372.181V501.774ZM921.5,500.165l-105.23,63.141L711.037,500.165V373.792l105.231-63.136L921.5,373.792Z" transform="translate(-412.41 16.649)" fill="#84e3ff"/>
    <path id="Path_36792" data-name="Path 36792" d="M816.268,445.218l108.075-64.848V250.779L816.268,185.933,708.192,250.779v129.59ZM921.5,378.758,816.268,441.9,711.037,378.758V252.389l105.231-63.138L921.5,252.389Z" transform="translate(-412.41 10.071)" fill="#84e3ff"/>
    <path id="Path_36793" data-name="Path 36793" d="M715.1,384.513l108.073-64.845V190.073L715.1,125.229,607.024,190.073V319.667Zm105.23-66.456L715.1,381.2,609.867,318.057V191.683L715.1,128.547l105.23,63.134Z" transform="translate(-204.59 6.782)" fill="#84e3ff"/>
    <path id="Path_36794" data-name="Path 36794" d="M917.439,384.513l108.073-64.845V190.073L917.439,125.229,809.365,190.073V319.667Zm105.229-66.456L917.439,381.2l-105.23-63.139V191.683l105.23-63.136,105.229,63.136Z" transform="translate(-620.234 6.782)" fill="#84e3ff"/>
    <path id="Path_36795" data-name="Path 36795" d="M310.421,1112.942l108.072-64.849V918.5L310.421,853.657,202.342,918.5v129.593ZM415.65,1046.48l-105.229,63.141L205.19,1046.48V920.11L310.421,856.97,415.65,920.11Z" transform="translate(626.7 46.253)" fill="#84e3ff"/>
    <path id="Path_36796" data-name="Path 36796" d="M411.588,1052.24l108.073-64.849V857.8L411.588,792.958,303.511,857.8V987.391Zm105.229-66.459-105.229,63.141L306.357,985.781V859.409l105.231-63.136,105.229,63.136Z" transform="translate(418.881 42.964)" fill="#84e3ff"/>
    <path id="Path_36797" data-name="Path 36797" d="M715.1,991.534l108.074-64.846v-129.6L715.1,732.252,607.023,797.093v129.6Zm105.228-66.457L715.1,988.218l-105.233-63.14V798.707L715.1,735.567l105.228,63.139Z" transform="translate(-204.588 39.674)" fill="#84e3ff"/>
    <path id="Path_36798" data-name="Path 36798" d="M816.268,809.429l108.075-64.848V614.988l-108.075-64.84-108.076,64.84V744.581ZM921.5,742.971,816.268,806.114,711.037,742.971V616.6l105.231-63.136L921.5,616.6Z" transform="translate(-412.41 29.807)" fill="#84e3ff"/>
    <path id="Path_36799" data-name="Path 36799" d="M917.442,748.724l108.071-64.845V554.287L917.441,489.443,809.366,554.287V683.879Zm105.229-66.456L917.442,745.409,812.21,682.268V555.9l105.231-63.139L1022.67,555.9Z" transform="translate(-620.236 26.517)" fill="#84e3ff"/>
    <path id="Path_36800" data-name="Path 36800" d="M1018.609,809.429l108.073-64.848V614.988l-108.074-64.84-108.075,64.84V744.581Zm105.228-66.458-105.228,63.143L913.38,742.971V616.6l105.229-63.136L1123.837,616.6Z" transform="translate(-828.055 29.807)" fill="#84e3ff"/>
    <path id="Path_36801" data-name="Path 36801" d="M1018.609,1052.24l108.073-64.849V857.8l-108.073-64.84L910.533,857.8V987.391Zm105.228-66.459-105.228,63.141L913.38,985.781V859.409l105.23-63.136,105.228,63.136Z" transform="translate(-828.055 42.964)" fill="#84e3ff"/>
    <path id="Path_36802" data-name="Path 36802" d="M1018.609,688.025l108.073-64.847V493.586l-108.074-64.841L910.533,493.586V623.178Zm105.228-66.459-105.228,63.145L913.38,621.566V495.2l105.23-63.135L1123.837,495.2Z" transform="translate(-828.055 23.228)" fill="#84e3ff"/>
    <path id="Path_36803" data-name="Path 36803" d="M917.441,627.322l108.071-64.847V432.883L917.439,368.04,809.365,432.883V562.475Zm105.227-66.457L917.441,624.008,812.209,560.865V434.495l105.23-63.139,105.229,63.139Z" transform="translate(-620.234 19.939)" fill="#84e3ff"/>
    <path id="Path_36804" data-name="Path 36804" d="M512.753,870.126,620.83,805.284V675.69L512.753,610.848,404.681,675.69V805.284ZM617.982,803.67,512.753,866.814,407.524,803.67V677.3l105.229-63.137L617.982,677.3Z" transform="translate(211.06 33.096)" fill="#84e3ff"/>
    <path id="Path_36805" data-name="Path 36805" d="M715.1,870.126l108.074-64.842V675.69L715.1,610.848,607.023,675.69V805.284ZM820.329,803.67,715.1,866.814,609.865,803.67V677.3L715.1,614.163,820.329,677.3Z" transform="translate(-204.588 33.096)" fill="#84e3ff"/>
    <path id="Path_36806" data-name="Path 36806" d="M411.588,930.835l108.073-64.848V736.394L411.588,671.555,303.511,736.394V865.987Zm105.229-66.46L411.588,927.516,306.357,864.376V738l105.231-63.135L516.817,738Z" transform="translate(418.881 36.385)" fill="#84e3ff"/>
    <path id="Path_36807" data-name="Path 36807" d="M310.421,870.126l108.072-64.843V675.69L310.421,610.847,202.342,675.69V805.284ZM415.65,803.67,310.421,866.813,205.19,803.67V677.3l105.231-63.137L415.65,677.3Z" transform="translate(626.7 33.096)" fill="#84e3ff"/>
    <path id="Path_36808" data-name="Path 36808" d="M310.421,991.534l108.072-64.846v-129.6L310.421,732.252,202.342,797.093v129.6ZM415.65,925.076,310.421,988.218,205.19,925.078V798.707l105.231-63.139L415.65,798.706Z" transform="translate(626.7 39.674)" fill="#84e3ff"/>
    <path id="Path_36809" data-name="Path 36809" d="M209.246,930.835l108.073-64.848V736.394l-108.073-64.84L101.17,736.394V865.987Zm105.228-66.46L209.246,927.516,104.014,864.375V738l105.232-63.135L314.474,738Z" transform="translate(834.528 36.385)" fill="#84e3ff"/>
    <path id="Path_36810" data-name="Path 36810" d="M213.305,682.272V555.9L108.073,492.76,2.843,555.9V682.272l105.23,63.139Zm2.844-127.984V683.881L108.073,748.726,0,683.881V554.288l108.073-64.843Z" transform="translate(1042.351 26.517)" fill="#84e3ff"/>
    <path id="Path_36811" data-name="Path 36811" d="M411.588,688.025l108.073-64.848V493.585L411.588,428.744,303.511,493.585V623.178Zm105.229-66.46L411.588,684.711,306.357,621.566V495.195L411.588,432.06l105.229,63.134Z" transform="translate(418.881 23.228)" fill="#84e3ff"/>
    <path id="Path_36812" data-name="Path 36812" d="M512.754,748.724l108.077-64.845V554.286L512.754,489.443,404.681,554.287V683.879Zm105.229-66.456L512.754,745.409,407.525,682.268V555.9l105.23-63.139L617.983,555.9Z" transform="translate(211.059 26.517)" fill="#84e3ff"/>
    <g id="Group_35373" data-name="Group 35373" transform="translate(0)">
      <g id="Group_35372" data-name="Group 35372" clip-path="url(#clip-path)">
        <path id="Path_36813" data-name="Path 36813" d="M298.789,369.942a6.4,6.4,0,1,1,6.4,6.4,6.4,6.4,0,0,1-6.4-6.4" transform="translate(631.934 19.695)" fill="#84e3ff"/>
        <path id="Path_36814" data-name="Path 36814" d="M94.425,491.451a8.533,8.533,0,1,1,8.533,8.537,8.533,8.533,0,0,1-8.533-8.537" transform="translate(1047.467 26.164)" fill="#84e3ff"/>
        <path id="Path_36815" data-name="Path 36815" d="M299.465,734.118a5.688,5.688,0,1,1,5.689,5.688,5.689,5.689,0,0,1-5.689-5.688" transform="translate(631.967 39.467)" fill="#84e3ff"/>
        <path id="Path_36816" data-name="Path 36816" d="M613.926,688.025,722,623.178V493.585l-108.074-64.84L505.851,493.586V623.178Zm105.229-66.459L613.926,684.711,508.7,621.566V495.2l105.23-63.135,105.229,63.134Z" transform="translate(3.237 23.228)" fill="#84e3ff"/>
        <path id="Path_36817" data-name="Path 36817" d="M501.806,491.305A5.688,5.688,0,1,1,507.492,497a5.688,5.688,0,0,1-5.686-5.691" transform="translate(216.32 26.31)" fill="#84e3ff"/>
        <path id="Path_36818" data-name="Path 36818" d="M801.267,552.233a9.955,9.955,0,1,1,9.954,9.953,9.953,9.953,0,0,1-9.954-9.953" transform="translate(-407.363 29.38)" fill="#84e3ff"/>
        <path id="Path_36819" data-name="Path 36819" d="M1109.5,491.269a4.975,4.975,0,1,1,4.977,4.98,4.976,4.976,0,0,1-4.977-4.98" transform="translate(-1030.579 26.346)" fill="#84e3ff"/>
        <path id="Path_36820" data-name="Path 36820" d="M1006.986,309.239a6.4,6.4,0,1,1,6.4,6.4,6.4,6.4,0,0,1-6.4-6.4" transform="translate(-822.833 16.406)" fill="#84e3ff"/>
        <path id="Path_36821" data-name="Path 36821" d="M1006.985,673.455a6.4,6.4,0,1,1,6.4,6.4,6.4,6.4,0,0,1-6.4-6.4" transform="translate(-822.832 36.141)" fill="#84e3ff"/>
        <path id="Path_36822" data-name="Path 36822" d="M802.62,187.947a8.533,8.533,0,1,1,8.535,8.532,8.538,8.538,0,0,1-8.535-8.532" transform="translate(-407.297 9.718)" fill="#84e3ff"/>
        <path id="Path_36823" data-name="Path 36823" d="M1009.68,66.285a3.555,3.555,0,1,1,3.554,3.554,3.551,3.551,0,0,1-3.554-3.554" transform="translate(-822.681 3.395)" fill="#84e3ff"/>
        <path id="Path_36824" data-name="Path 36824" d="M906.484,5.69a5.689,5.689,0,1,1,5.687,5.688,5.688,5.688,0,0,1-5.687-5.688" transform="translate(-614.966 -0.004)" fill="#84e3ff"/>
        <path id="Path_36825" data-name="Path 36825" d="M804.643,794.858a6.4,6.4,0,1,1,6.4,6.4,6.4,6.4,0,0,1-6.4-6.4" transform="translate(-407.183 42.72)" fill="#84e3ff"/>
        <path id="Path_36826" data-name="Path 36826" d="M504.5,1098.186a2.844,2.844,0,1,1,2.841,2.841,2.843,2.843,0,0,1-2.841-2.841" transform="translate(216.469 59.349)" fill="#84e3ff"/>
        <path id="Path_36827" data-name="Path 36827" d="M600.951,1037.741a7.822,7.822,0,1,1,7.821,7.819,7.822,7.822,0,0,1-7.821-7.819" transform="translate(8.391 55.804)" fill="#84e3ff"/>
        <path id="Path_36828" data-name="Path 36828" d="M1000.238,795.223a13.509,13.509,0,1,1,13.51,13.508,13.509,13.509,0,0,1-13.51-13.508" transform="translate(-823.195 42.354)" fill="#84e3ff"/>
        <path id="Path_36829" data-name="Path 36829" d="M194.922,916.409a9.243,9.243,0,1,1,9.244,9.243,9.242,9.242,0,0,1-9.244-9.243" transform="translate(839.609 49.152)" fill="#84e3ff"/>
        <path id="Path_36830" data-name="Path 36830" d="M97.8,1098.3a4.977,4.977,0,1,1,4.976,4.976A4.977,4.977,0,0,1,97.8,1098.3" transform="translate(1047.652 59.239)" fill="#84e3ff"/>
        <path id="Path_36831" data-name="Path 36831" d="M899.741,977.291a12.8,12.8,0,1,1,12.8,12.8,12.8,12.8,0,0,1-12.8-12.8" transform="translate(-615.334 52.258)" fill="#84e3ff"/>
        <path id="Path_36832" data-name="Path 36832" d="M400.632,916.227a5.689,5.689,0,1,1,5.688,5.686,5.689,5.689,0,0,1-5.688-5.686" transform="translate(424.149 49.335)" fill="#84e3ff"/>
        <path id="Path_36833" data-name="Path 36833" d="M597.58,673.711a11.376,11.376,0,1,1,11.376,11.376,11.374,11.374,0,0,1-11.376-11.376" transform="translate(8.207 35.886)" fill="#84e3ff"/>
        <path id="Path_36834" data-name="Path 36834" d="M501.806,369.905a5.688,5.688,0,1,1,5.686,5.688,5.689,5.689,0,0,1-5.686-5.688" transform="translate(216.32 19.732)" fill="#84e3ff"/>
        <path id="Path_36835" data-name="Path 36835" d="M404.008,187.618a2.134,2.134,0,1,1,2.136,2.128,2.135,2.135,0,0,1-2.136-2.128" transform="translate(424.325 10.047)" fill="#84e3ff"/>
        <path id="Path_36836" data-name="Path 36836" d="M1112.873,306.141l82.478-49.485V130.285l-82.478-49.49V77.48L1198.2,128.67v129.6l-85.324,51.191Z" transform="translate(-1112.872 4.194)" fill="#84e3ff"/>
        <path id="Path_36837" data-name="Path 36837" d="M1112.873,548.951l82.478-49.489V373.09L1112.873,323.6v-3.314l85.324,51.189V501.072l-85.324,51.2Z" transform="translate(-1112.872 17.351)" fill="#84e3ff"/>
        <path id="Path_36838" data-name="Path 36838" d="M1203.678,311.478v129.6L1095.6,505.917l-83.9-50.34v-3.316l83.9,50.34,105.23-63.139V313.089L1095.6,249.954l-83.9,50.336v-3.321l83.9-50.331Z" transform="translate(-1011.703 13.36)" fill="#84e3ff"/>
        <path id="Path_36839" data-name="Path 36839" d="M924.343,979.2v129.6L838,1160.607h-5.531l89.035-53.424V980.813L816.267,917.679l-105.23,63.134v126.371l89.028,53.424h-5.526L708.191,1108.8V979.2l108.075-64.844Z" transform="translate(-412.409 49.542)" fill="#84e3ff"/>
      </g>
    </g>
  </g>
</svg>
