<svg xmlns="http://www.w3.org/2000/svg" width="77" height="50" viewBox="0 0 77 50">
  <g id="Group_34496" data-name="Group 34496" transform="translate(-321 -6037)">
    <g id="Ellipse_80" data-name="Ellipse 80" transform="translate(348 6037)" fill="none" stroke="#ef4637" stroke-width="2">
      <circle cx="25" cy="25" r="25" stroke="none"/>
      <circle cx="25" cy="25" r="24" fill="none"/>
    </g>
    <g id="Group_17898" data-name="Group 17898" transform="translate(312.097 6051)">
      <g id="Group_17875" data-name="Group 17875" transform="translate(8.903 0)">
        <g id="Group_17897" data-name="Group 17897" transform="translate(45.338)">
          <path id="Path_19" data-name="Path 19" d="M367.941,22a1.628,1.628,0,0,1-1.316-.666,1.6,1.6,0,0,1,.362-2.252l10.334-7.448a.834.834,0,0,0,.415-.594.837.837,0,0,0-.414-.6L366.979,2.915a1.608,1.608,0,0,1-.351-2.254,1.626,1.626,0,0,1,2.266-.35L379.238,7.84a3.976,3.976,0,0,1,1.74,3.207,3.977,3.977,0,0,1-1.755,3.2l-10.334,7.448A1.614,1.614,0,0,1,367.941,22Z" transform="translate(-366.316 0)" fill="#fff"/>
        </g>
        <rect id="Rectangle_16222" data-name="Rectangle 16222" width="57.852" height="3.34" rx="1.67" transform="translate(0 9.33)" fill="#fff"/>
      </g>
    </g>
  </g>
</svg>
